# xmcd CD database file
#
# Track frame offsets:
#	150
#	17045
#	33970
#	47427
#	62910
#	77956
#	94465
#	109965
#	127783
#	157354
#	175483
#	194173
#	214998
#	238133
#	258608
#	279363
#	301560
#	327885
#
# Disc length: 4536 seconds
#
# Revision: 0
# Processed by: cddbd v1.5.1PL0 Copyright (c) Steve Scherf et al.
# Submitted via: CDex 1.51
#
DISCID=0a11b612
DTITLE=the pillows - Original Album 2
DYEAR=2005
DGENRE=JPop
TTITLE0=Little Busters
TTITLE1=巴里の女性マリー
TTITLE2=Come on Ghost
TTITLE3=Midnight Down
TTITLE4=Skeleton Liar
TTITLE5=Funny Bunny
TTITLE6=バビロン天使の詩
TTITLE7=TRIP DANCER
TTITLE8=Strange Chameleon
TTITLE9=HYBRID RAINBOW
TTITLE10=Please Mr,Lostman
TTITLE11=Thank you my twilight
TTITLE12=確かめに行こう
TTITLE13=ROBOTMAN
TTITLE14=アナザーモーニング
TTITLE15=パトリシア
TTITLE16=08 白い夏と緑の自転車 赤い髪と黒いギター(original egoistic version)
TTITLE17=RUNNERS HIGH
EXTD=YEAR: 2005
EXTT0=
EXTT1=
EXTT2=
EXTT3=
EXTT4=
EXTT5=
EXTT6=
EXTT7=
EXTT8=
EXTT9=
EXTT10=
EXTT11=
EXTT12=
EXTT13=
EXTT14=
EXTT15=
EXTT16=
EXTT17=
PLAYORDER=
